<mxfile host="app.diagrams.net" modified="2023-04-15T16:01:21.614Z" agent="Mozilla/5.0 (Windows NT 10.0; Win64; x64) AppleWebKit/537.36 (KHTML, like Gecko) Chrome/112.0.0.0 Safari/537.36" etag="yLfDvk8i7BJJgVTBEsjj" version="21.1.8" type="github">
  <diagram name="Page-1" id="YHJ-fagworV4knF-acnu">
    <mxGraphModel dx="2507" dy="1448" grid="1" gridSize="10" guides="1" tooltips="1" connect="1" arrows="1" fold="1" page="1" pageScale="1" pageWidth="827" pageHeight="1169" math="0" shadow="0">
      <root>
        <mxCell id="0" />
        <mxCell id="1" parent="0" />
        <mxCell id="lbBOx0iVznoYNla-GpdW-4" value="" style="edgeStyle=orthogonalEdgeStyle;rounded=0;orthogonalLoop=1;jettySize=auto;html=1;" edge="1" parent="1" source="lbBOx0iVznoYNla-GpdW-2" target="lbBOx0iVznoYNla-GpdW-3">
          <mxGeometry relative="1" as="geometry" />
        </mxCell>
        <mxCell id="lbBOx0iVznoYNla-GpdW-2" value="START" style="ellipse;whiteSpace=wrap;html=1;" vertex="1" parent="1">
          <mxGeometry x="320" y="40" width="120" height="80" as="geometry" />
        </mxCell>
        <mxCell id="lbBOx0iVznoYNla-GpdW-16" style="edgeStyle=orthogonalEdgeStyle;rounded=0;orthogonalLoop=1;jettySize=auto;html=1;entryX=0.5;entryY=0;entryDx=0;entryDy=0;" edge="1" parent="1" source="lbBOx0iVznoYNla-GpdW-3" target="lbBOx0iVznoYNla-GpdW-13">
          <mxGeometry relative="1" as="geometry" />
        </mxCell>
        <mxCell id="lbBOx0iVznoYNla-GpdW-17" style="edgeStyle=orthogonalEdgeStyle;rounded=0;orthogonalLoop=1;jettySize=auto;html=1;entryX=0.5;entryY=0;entryDx=0;entryDy=0;exitX=0;exitY=0.5;exitDx=0;exitDy=0;" edge="1" parent="1" source="lbBOx0iVznoYNla-GpdW-3" target="lbBOx0iVznoYNla-GpdW-12">
          <mxGeometry relative="1" as="geometry" />
        </mxCell>
        <mxCell id="lbBOx0iVznoYNla-GpdW-18" style="edgeStyle=orthogonalEdgeStyle;rounded=0;orthogonalLoop=1;jettySize=auto;html=1;entryX=0.5;entryY=0;entryDx=0;entryDy=0;" edge="1" parent="1" source="lbBOx0iVznoYNla-GpdW-3" target="lbBOx0iVznoYNla-GpdW-6">
          <mxGeometry relative="1" as="geometry" />
        </mxCell>
        <mxCell id="lbBOx0iVznoYNla-GpdW-19" style="edgeStyle=orthogonalEdgeStyle;rounded=0;orthogonalLoop=1;jettySize=auto;html=1;entryX=0.5;entryY=0;entryDx=0;entryDy=0;" edge="1" parent="1" source="lbBOx0iVznoYNla-GpdW-3" target="lbBOx0iVznoYNla-GpdW-5">
          <mxGeometry relative="1" as="geometry" />
        </mxCell>
        <mxCell id="lbBOx0iVznoYNla-GpdW-20" style="edgeStyle=orthogonalEdgeStyle;rounded=0;orthogonalLoop=1;jettySize=auto;html=1;entryX=0.5;entryY=0;entryDx=0;entryDy=0;" edge="1" parent="1" source="lbBOx0iVznoYNla-GpdW-3" target="lbBOx0iVznoYNla-GpdW-9">
          <mxGeometry relative="1" as="geometry">
            <Array as="points">
              <mxPoint x="380" y="280" />
              <mxPoint x="340" y="280" />
            </Array>
          </mxGeometry>
        </mxCell>
        <mxCell id="lbBOx0iVznoYNla-GpdW-21" style="edgeStyle=orthogonalEdgeStyle;rounded=0;orthogonalLoop=1;jettySize=auto;html=1;entryX=0.368;entryY=-0.009;entryDx=0;entryDy=0;entryPerimeter=0;" edge="1" parent="1" source="lbBOx0iVznoYNla-GpdW-3" target="lbBOx0iVznoYNla-GpdW-8">
          <mxGeometry relative="1" as="geometry">
            <Array as="points">
              <mxPoint x="380" y="280" />
              <mxPoint x="450" y="280" />
              <mxPoint x="450" y="329" />
            </Array>
          </mxGeometry>
        </mxCell>
        <mxCell id="lbBOx0iVznoYNla-GpdW-22" style="edgeStyle=orthogonalEdgeStyle;rounded=0;orthogonalLoop=1;jettySize=auto;html=1;entryX=0.5;entryY=0;entryDx=0;entryDy=0;" edge="1" parent="1" source="lbBOx0iVznoYNla-GpdW-3" target="lbBOx0iVznoYNla-GpdW-7">
          <mxGeometry relative="1" as="geometry" />
        </mxCell>
        <mxCell id="lbBOx0iVznoYNla-GpdW-23" style="edgeStyle=orthogonalEdgeStyle;rounded=0;orthogonalLoop=1;jettySize=auto;html=1;" edge="1" parent="1" source="lbBOx0iVznoYNla-GpdW-3">
          <mxGeometry relative="1" as="geometry">
            <mxPoint x="570" y="200" as="targetPoint" />
          </mxGeometry>
        </mxCell>
        <mxCell id="lbBOx0iVznoYNla-GpdW-24" style="edgeStyle=orthogonalEdgeStyle;rounded=0;orthogonalLoop=1;jettySize=auto;html=1;entryX=0.5;entryY=0;entryDx=0;entryDy=0;" edge="1" parent="1" source="lbBOx0iVznoYNla-GpdW-3" target="lbBOx0iVznoYNla-GpdW-11">
          <mxGeometry relative="1" as="geometry" />
        </mxCell>
        <mxCell id="lbBOx0iVznoYNla-GpdW-25" style="edgeStyle=orthogonalEdgeStyle;rounded=0;orthogonalLoop=1;jettySize=auto;html=1;entryX=0.5;entryY=0;entryDx=0;entryDy=0;" edge="1" parent="1" source="lbBOx0iVznoYNla-GpdW-3" target="lbBOx0iVznoYNla-GpdW-10">
          <mxGeometry relative="1" as="geometry" />
        </mxCell>
        <mxCell id="lbBOx0iVznoYNla-GpdW-3" value="SELECT (1-9)&lt;br&gt;OPTIONS" style="shape=parallelogram;perimeter=parallelogramPerimeter;whiteSpace=wrap;html=1;fixedSize=1;" vertex="1" parent="1">
          <mxGeometry x="320" y="170" width="120" height="60" as="geometry" />
        </mxCell>
        <mxCell id="lbBOx0iVznoYNla-GpdW-53" style="edgeStyle=orthogonalEdgeStyle;rounded=0;orthogonalLoop=1;jettySize=auto;html=1;" edge="1" parent="1" source="lbBOx0iVznoYNla-GpdW-5">
          <mxGeometry relative="1" as="geometry">
            <mxPoint x="210" y="510" as="targetPoint" />
          </mxGeometry>
        </mxCell>
        <mxCell id="lbBOx0iVznoYNla-GpdW-5" value="select_movie()" style="shape=parallelogram;perimeter=parallelogramPerimeter;whiteSpace=wrap;html=1;fixedSize=1;" vertex="1" parent="1">
          <mxGeometry x="150" y="330" width="120" height="60" as="geometry" />
        </mxCell>
        <mxCell id="lbBOx0iVznoYNla-GpdW-52" style="edgeStyle=orthogonalEdgeStyle;rounded=0;orthogonalLoop=1;jettySize=auto;html=1;" edge="1" parent="1" source="lbBOx0iVznoYNla-GpdW-6">
          <mxGeometry relative="1" as="geometry">
            <mxPoint x="80" y="510" as="targetPoint" />
          </mxGeometry>
        </mxCell>
        <mxCell id="lbBOx0iVznoYNla-GpdW-6" value="display_movie()" style="shape=parallelogram;perimeter=parallelogramPerimeter;whiteSpace=wrap;html=1;fixedSize=1;" vertex="1" parent="1">
          <mxGeometry x="20" y="330" width="120" height="60" as="geometry" />
        </mxCell>
        <mxCell id="lbBOx0iVznoYNla-GpdW-15" style="edgeStyle=orthogonalEdgeStyle;rounded=0;orthogonalLoop=1;jettySize=auto;html=1;exitX=0.5;exitY=1;exitDx=0;exitDy=0;" edge="1" parent="1" source="lbBOx0iVznoYNla-GpdW-7">
          <mxGeometry relative="1" as="geometry">
            <mxPoint x="590" y="370" as="targetPoint" />
          </mxGeometry>
        </mxCell>
        <mxCell id="lbBOx0iVznoYNla-GpdW-57" style="edgeStyle=orthogonalEdgeStyle;rounded=0;orthogonalLoop=1;jettySize=auto;html=1;" edge="1" parent="1" source="lbBOx0iVznoYNla-GpdW-7">
          <mxGeometry relative="1" as="geometry">
            <mxPoint x="590" y="510" as="targetPoint" />
          </mxGeometry>
        </mxCell>
        <mxCell id="lbBOx0iVznoYNla-GpdW-7" value="confirm_tickets()" style="shape=parallelogram;perimeter=parallelogramPerimeter;whiteSpace=wrap;html=1;fixedSize=1;" vertex="1" parent="1">
          <mxGeometry x="530" y="330" width="120" height="60" as="geometry" />
        </mxCell>
        <mxCell id="lbBOx0iVznoYNla-GpdW-58" style="edgeStyle=orthogonalEdgeStyle;rounded=0;orthogonalLoop=1;jettySize=auto;html=1;" edge="1" parent="1" source="lbBOx0iVznoYNla-GpdW-8">
          <mxGeometry relative="1" as="geometry">
            <mxPoint x="465" y="510" as="targetPoint" />
          </mxGeometry>
        </mxCell>
        <mxCell id="lbBOx0iVznoYNla-GpdW-8" value="&lt;font style=&quot;font-size: 10px;&quot;&gt;select_refreshment()&lt;/font&gt;" style="shape=parallelogram;perimeter=parallelogramPerimeter;whiteSpace=wrap;html=1;fixedSize=1;" vertex="1" parent="1">
          <mxGeometry x="410" y="330" width="110" height="60" as="geometry" />
        </mxCell>
        <mxCell id="lbBOx0iVznoYNla-GpdW-54" style="edgeStyle=orthogonalEdgeStyle;rounded=0;orthogonalLoop=1;jettySize=auto;html=1;" edge="1" parent="1" source="lbBOx0iVznoYNla-GpdW-9">
          <mxGeometry relative="1" as="geometry">
            <mxPoint x="340" y="510" as="targetPoint" />
          </mxGeometry>
        </mxCell>
        <mxCell id="lbBOx0iVznoYNla-GpdW-9" value="select_seats()" style="shape=parallelogram;perimeter=parallelogramPerimeter;whiteSpace=wrap;html=1;fixedSize=1;" vertex="1" parent="1">
          <mxGeometry x="280" y="330" width="120" height="60" as="geometry" />
        </mxCell>
        <mxCell id="lbBOx0iVznoYNla-GpdW-55" style="edgeStyle=orthogonalEdgeStyle;rounded=0;orthogonalLoop=1;jettySize=auto;html=1;entryX=0.5;entryY=0;entryDx=0;entryDy=0;" edge="1" parent="1" source="lbBOx0iVznoYNla-GpdW-10">
          <mxGeometry relative="1" as="geometry">
            <mxPoint x="360" y="560" as="targetPoint" />
            <Array as="points">
              <mxPoint x="850" y="510" />
              <mxPoint x="360" y="510" />
            </Array>
          </mxGeometry>
        </mxCell>
        <mxCell id="lbBOx0iVznoYNla-GpdW-10" value="exit(0)" style="shape=parallelogram;perimeter=parallelogramPerimeter;whiteSpace=wrap;html=1;fixedSize=1;" vertex="1" parent="1">
          <mxGeometry x="790" y="330" width="120" height="60" as="geometry" />
        </mxCell>
        <mxCell id="lbBOx0iVznoYNla-GpdW-56" style="edgeStyle=orthogonalEdgeStyle;rounded=0;orthogonalLoop=1;jettySize=auto;html=1;" edge="1" parent="1" source="lbBOx0iVznoYNla-GpdW-11">
          <mxGeometry relative="1" as="geometry">
            <mxPoint x="720" y="510" as="targetPoint" />
          </mxGeometry>
        </mxCell>
        <mxCell id="lbBOx0iVznoYNla-GpdW-11" value="&lt;font style=&quot;font-size: 9px;&quot;&gt;displayPaymentOptions()&lt;/font&gt;" style="shape=parallelogram;perimeter=parallelogramPerimeter;whiteSpace=wrap;html=1;fixedSize=1;" vertex="1" parent="1">
          <mxGeometry x="660" y="330" width="120" height="60" as="geometry" />
        </mxCell>
        <mxCell id="lbBOx0iVznoYNla-GpdW-51" style="edgeStyle=orthogonalEdgeStyle;rounded=0;orthogonalLoop=1;jettySize=auto;html=1;" edge="1" parent="1" source="lbBOx0iVznoYNla-GpdW-12">
          <mxGeometry relative="1" as="geometry">
            <mxPoint x="-50" y="510" as="targetPoint" />
          </mxGeometry>
        </mxCell>
        <mxCell id="lbBOx0iVznoYNla-GpdW-12" value="select_theatre()" style="shape=parallelogram;perimeter=parallelogramPerimeter;whiteSpace=wrap;html=1;fixedSize=1;size=20;" vertex="1" parent="1">
          <mxGeometry x="-110" y="330" width="120" height="60" as="geometry" />
        </mxCell>
        <mxCell id="lbBOx0iVznoYNla-GpdW-50" style="edgeStyle=orthogonalEdgeStyle;rounded=0;orthogonalLoop=1;jettySize=auto;html=1;" edge="1" parent="1" source="lbBOx0iVznoYNla-GpdW-13">
          <mxGeometry relative="1" as="geometry">
            <mxPoint x="360" y="560" as="targetPoint" />
            <Array as="points">
              <mxPoint x="-180" y="510" />
              <mxPoint x="360" y="510" />
            </Array>
          </mxGeometry>
        </mxCell>
        <mxCell id="lbBOx0iVznoYNla-GpdW-13" value="registerUser()" style="shape=parallelogram;perimeter=parallelogramPerimeter;whiteSpace=wrap;html=1;fixedSize=1;" vertex="1" parent="1">
          <mxGeometry x="-240" y="330" width="120" height="60" as="geometry" />
        </mxCell>
        <mxCell id="lbBOx0iVznoYNla-GpdW-14" style="edgeStyle=orthogonalEdgeStyle;rounded=0;orthogonalLoop=1;jettySize=auto;html=1;exitX=1;exitY=1;exitDx=0;exitDy=0;entryX=1;entryY=0.75;entryDx=0;entryDy=0;" edge="1" parent="1" source="lbBOx0iVznoYNla-GpdW-13" target="lbBOx0iVznoYNla-GpdW-13">
          <mxGeometry relative="1" as="geometry" />
        </mxCell>
        <mxCell id="lbBOx0iVznoYNla-GpdW-61" value="" style="edgeStyle=orthogonalEdgeStyle;rounded=0;orthogonalLoop=1;jettySize=auto;html=1;" edge="1" parent="1" source="lbBOx0iVznoYNla-GpdW-59" target="lbBOx0iVznoYNla-GpdW-60">
          <mxGeometry relative="1" as="geometry" />
        </mxCell>
        <mxCell id="lbBOx0iVznoYNla-GpdW-59" value="MOVIE HAS BEEN BOOKED AND TICKET HAS BEEN BOOKED" style="whiteSpace=wrap;html=1;aspect=fixed;" vertex="1" parent="1">
          <mxGeometry x="304" y="560" width="110" height="110" as="geometry" />
        </mxCell>
        <mxCell id="lbBOx0iVznoYNla-GpdW-60" value="END" style="ellipse;whiteSpace=wrap;html=1;" vertex="1" parent="1">
          <mxGeometry x="319" y="765" width="80" height="80" as="geometry" />
        </mxCell>
      </root>
    </mxGraphModel>
  </diagram>
</mxfile>
